<svg width="800" height="600" viewBox="0 0 800 600" xmlns="http://www.w3.org/2000/svg">
  <!-- Background Elements -->
  <defs>
    <linearGradient id="grad1" x1="0%" y1="0%" x2="100%" y2="100%">
      <stop offset="0%" style="stop-color:#8B5CF6;stop-opacity:0.2" />
      <stop offset="100%" style="stop-color:#3B82F6;stop-opacity:0.2" />
    </linearGradient>
    <filter id="blur">
      <feGaussianBlur in="SourceGraphic" stdDeviation="10" />
    </filter>
  </defs>
  
  <!-- Decorative Circles -->
  <circle cx="200" cy="300" r="150" fill="url(#grad1)" filter="url(#blur)" />
  <circle cx="600" cy="200" r="100" fill="url(#grad1)" filter="url(#blur)" />
  
  <!-- Abstract Shapes -->
  <path d="M300,150 C400,100 500,200 400,300 C300,400 200,300 300,150" 
        fill="none" stroke="#8B5CF6" stroke-width="2" stroke-opacity="0.3" />
  <path d="M500,250 C600,200 700,300 600,400 C500,500 400,400 500,250" 
        fill="none" stroke="#3B82F6" stroke-width="2" stroke-opacity="0.3" />
  
  <!-- Connection Lines -->
  <line x1="300" y1="300" x2="500" y2="250" 
        stroke="#8B5CF6" stroke-width="2" stroke-opacity="0.2" />
  <line x1="400" y1="200" x2="600" y2="300" 
        stroke="#3B82F6" stroke-width="2" stroke-opacity="0.2" />
  
  <!-- Feature Icons -->
  <g transform="translate(250,250)">
    <circle cx="0" cy="0" r="30" fill="#8B5CF6" fill-opacity="0.1" />
    <path d="M-15,-15 L15,15 M-15,15 L15,-15" 
          stroke="#8B5CF6" stroke-width="3" stroke-opacity="0.5" />
  </g>
  
  <g transform="translate(550,350)">
    <circle cx="0" cy="0" r="30" fill="#3B82F6" fill-opacity="0.1" />
    <path d="M0,-20 L0,20 M-20,0 L20,0" 
          stroke="#3B82F6" stroke-width="3" stroke-opacity="0.5" />
  </g>
</svg> 